<svg viewBox="0 0 96 96" xmlns="http://www.w3.org/2000/svg">
  <circle cx="48" cy="56" r="31" fill="#8e7ad8" stroke="#2b1d0e" stroke-width="5"/>
  <path d="M36.5 50a6.5 6.5 0 1 1 6 8.5" fill="none" stroke="#2b1d0e" stroke-width="3.5" stroke-linecap="round"/>
  <path d="M56 40a6.5 6.5 0 1 1 8.5 6" fill="none" stroke="#2b1d0e" stroke-width="3.5" stroke-linecap="round"/>
  <path d="M50 66a6.5 6.5 0 1 1 9 4.5" fill="none" stroke="#2b1d0e" stroke-width="3.5" stroke-linecap="round"/>
  <path d="M48 26c0-7 3.5-11 10-11" fill="none" stroke="#2b1d0e" stroke-width="5" stroke-linecap="round"/>
  <path d="M48 25c-10-3-16 0-18 7 8 4 15 1 18-7z" fill="#7ec96b" stroke="#2b1d0e" stroke-width="4" stroke-linejoin="round"/>
  <path d="M27 44.5a25 25 0 0 1 8.5-9.5" fill="none" stroke="#fff1cf" stroke-width="5" stroke-linecap="round" opacity="0.85"/>
</svg>
