<svg viewBox="0 0 96 96" xmlns="http://www.w3.org/2000/svg">
  <g fill="#3c6e91" stroke="#2b1d0e" stroke-width="4.5" stroke-linejoin="round">
    <rect x="41" y="8" width="14" height="18" rx="5"/>
    <rect x="41" y="70" width="14" height="18" rx="5"/>
    <rect x="8" y="41" width="18" height="14" rx="5"/>
    <rect x="70" y="41" width="18" height="14" rx="5"/>
    <rect x="41" y="8" width="14" height="18" rx="5" transform="rotate(45 48 48)"/>
    <rect x="41" y="70" width="14" height="18" rx="5" transform="rotate(45 48 48)"/>
    <rect x="8" y="41" width="18" height="14" rx="5" transform="rotate(45 48 48)"/>
    <rect x="70" y="41" width="18" height="14" rx="5" transform="rotate(45 48 48)"/>
  </g>
  <circle cx="48" cy="48" r="26" fill="#3c6e91" stroke="#2b1d0e" stroke-width="5"/>
  <circle cx="48" cy="48" r="10.5" fill="#fff1cf" stroke="#2b1d0e" stroke-width="4.5"/>
  <path d="M29.5 36a22 22 0 0 1 8-7.5" fill="none" stroke="#d6f3f8" stroke-width="4.5" stroke-linecap="round" opacity="0.7"/>
</svg>
