<svg viewBox="0 0 96 96" xmlns="http://www.w3.org/2000/svg">
  <!-- Whirling current — deep-sea spiral with a foam core and a push arrow. -->
  <path d="M50 14a36 36 0 1 1-36 36 27 27 0 1 0 27-27 19 19 0 1 1-19 19 11.5 11.5 0 1 0 11.5-11.5" fill="none" stroke="#2b1d0e" stroke-width="13" stroke-linecap="round"/>
  <path d="M50 14a36 36 0 1 1-36 36 27 27 0 1 0 27-27 19 19 0 1 1-19 19 11.5 11.5 0 1 0 11.5-11.5" fill="none" stroke="#1d6f9f" stroke-width="8" stroke-linecap="round"/>
  <path d="M50 14a36 36 0 1 1-36 36 27 27 0 1 0 27-27 19 19 0 1 1-19 19 11.5 11.5 0 1 0 11.5-11.5" fill="none" stroke="#d6f3f8" stroke-width="2.5" stroke-linecap="round" opacity="0.9"/>
  <!-- Flow arrowhead at the spiral mouth -->
  <path d="M50 5l14 9-14 9z" fill="#1d6f9f" stroke="#2b1d0e" stroke-width="3.5" stroke-linejoin="round"/>
</svg>
